Coordinates
version=1
nRows=24
nColumns=24
inDegrees=yes

Units are S.I. units (second, meters, Newtons, ...)
Angles are in degrees.

endheader
time	pelvis_tilt	pelvis_list	pelvis_rotation	pelvis_tx	pelvis_ty	pelvis_tz	hip_flexion_r	hip_adduction_r	hip_rotation_r	knee_angle_r	ankle_angle_r	subtalar_angle_r	mtp_angle_r	hip_flexion_l	hip_adduction_l	hip_rotation_l	knee_angle_l	ankle_angle_l	subtalar_angle_l	mtp_angle_l	lumbar_extension	lumbar_bending	lumbar_rotation
      0.57600000	     -0.84384241	      6.91505986	      4.09942086	     -0.89283414	      0.99248341	      0.27305906	     23.66421003	     -8.37274534	    -11.09516373	      5.01599385	     -0.18969759	     -5.68634532	     -0.58780804	    -13.09888228	      7.74706533	     -3.55506304	     -5.01174976	     10.50472192	     -5.44509046	     -0.00022881	    -11.96154260	     -7.32423089	     -1.81108979
      0.58016667	     -0.49691648	      6.77755464	      4.29701613	     -0.88712431	      0.99241079	      0.27289820	     23.34896135	     -8.31026681	    -11.12489022	      4.45920245	     -0.24544421	     -5.99946115	     -1.24810153	    -13.66590994	      7.47024839	     -3.39264438	     -5.32215858	     10.65998851	     -5.28365054	     -0.16819047	    -12.35691265	     -7.00918598	     -2.14283069
      0.58433333	     -0.38293685	      6.71080437	      4.40717585	     -0.88138406	      0.99193716	      0.27290364	     23.35442624	     -8.29201895	    -10.96429396	      3.77687999	     -0.36418951	     -6.39575864	     -1.34749231	    -13.98496911	      7.31390788	     -3.20726469	     -5.64289660	     10.78240272	     -5.33728256	     -0.19158012	    -12.46891493	     -6.83257960	     -2.19701464
      0.58850000	     -0.12423203	      6.59779126	      4.52889462	     -0.87561380	      0.99175470	      0.27293844	     23.16325891	     -8.21538139	    -10.88911207	      3.12863710	     -0.57298653	     -6.82739624	     -1.50700103	    -14.42974307	      7.07979674	     -3.09642280	     -6.00618822	     10.84414728	     -5.32099826	     -0.22469159	    -12.74728270	     -6.57785822	     -2.37768480
      0.59266667	      0.27669679	      6.41420039	      4.65376828	     -0.86970660	      0.99185016	      0.27290396	     22.76792951	     -8.06161630	    -10.91691606	      2.52711594	     -0.79514198	     -7.13099422	     -1.73267762	    -15.04571021	      6.75625526	     -2.95222007	     -6.32902351	     10.93735574	     -5.28351604	     -0.26158450	    -13.16392553	     -6.20555490	     -2.58090727
      0.59683333	      0.47083986	      6.31313336	      4.78319579	     -0.86388657	      0.99164801	      0.27299072	     22.63417899	     -7.99233845	    -10.85059294	      1.84768263	     -1.08576421	     -7.57067077	     -1.81377649	    -15.39496367	      6.53086642	     -2.78768943	     -6.74090958	     10.94306448	     -5.29235867	     -0.26729842	    -13.36517385	     -5.98272202	     -2.64662469
      0.60100000	      0.86342973	      6.12524279	      4.88789519	     -0.85795202	      0.99179995	      0.27309703	     22.23177221	     -7.80853693	    -10.86384136	      1.25251597	     -1.44476342	     -7.94964314	     -1.92503464	    -15.95218714	      6.19270827	     -2.69049995	     -7.15748888	     11.00005346	     -5.23288548	     -0.25091394	    -13.77097466	     -5.62031602	     -2.85568835
      0.60516667	      1.15953238	      5.97583526	      4.98265848	     -0.85202792	      0.99184446	      0.27327700	     21.94166082	     -7.65713793	    -10.83198565	      0.64341391	     -1.88047481	     -8.39927643	     -1.97812465	    -16.38288159	      5.90532061	     -2.58037554	     -7.60926213	     10.98189882	     -5.22892404	     -0.20916818	    -14.06954465	     -5.32842942	     -2.95354035
      0.60933333	      1.35578304	      5.84141681	      5.09058229	     -0.84606312	      0.99179394	      0.27350127	     21.75110476	     -7.52322559	    -10.79498203	      0.03781198	     -2.37656464	     -8.89382683	     -1.98681407	    -16.68490195	      5.63409782	     -2.46725398	     -8.10852029	     10.89339597	     -5.22050581	     -0.16856826	    -14.24992115	     -5.06934522	     -3.01317380
      0.61350000	      1.72839740	      5.64712311	      5.14394375	     -0.84005878	      0.99204134	      0.27380810	     21.33550371	     -7.29187234	    -10.78329824	     -0.48195288	     -2.97325071	     -9.33822192	     -1.94840919	    -17.15619943	      5.29071141	     -2.44484532	     -8.63784669	     10.88618786	     -5.15703954	     -0.05892603	    -14.62152534	     -4.72113060	     -3.14104767
      0.61766667	      1.89268166	      5.50111425	      5.22051007	     -0.83403297	      0.99204838	      0.27412862	     21.15465753	     -7.12656362	    -10.74364027	     -1.03212145	     -3.59723675	     -9.87019864	     -1.91523054	    -17.37953866	      5.01749643	     -2.35089287	     -9.21342192	     10.73619916	     -5.21531154	      0.01220326	    -14.75401201	     -4.46452975	     -3.15466027
      0.62183333	      2.24129486	      5.30001344	      5.21660822	     -0.82797265	      0.99234572	      0.27460777	     20.74976543	     -6.85700431	    -10.68663627	     -1.49795032	     -4.33143711	    -10.35061360	     -1.79562305	    -17.78551137	      4.67770130	     -2.40635299	     -9.81351662	     10.64337278	     -5.14228829	      0.20033523	    -15.09384364	     -4.13367274	     -3.22723640
      0.62600000	      1.25282709	      5.12425080	      4.67890280	     -0.82021787	      0.99053253	      0.27577951	     21.92713390	     -6.49901879	     -9.88180795	     -2.17504597	     -5.03895265	    -10.94136602	     -1.64830481	    -16.93331921	      4.67718600	     -3.03607883	    -10.27724288	     10.40042524	     -5.16330055	      0.41508026	    -13.67017937	     -4.10776520	     -2.70320576
      0.63016667	      1.34323040	      4.99791392	      4.70446572	     -0.81426298	      0.99060508	      0.27622732	     21.81563865	     -6.34349060	     -9.82731131	     -2.67581606	     -5.80911743	    -11.39216660	     -1.62322294	    -16.97961999	      4.44997120	     -2.97609638	    -11.02831472	     10.16224091	     -5.29104133	      0.47493454	    -13.72961717	     -3.89124358	     -2.65133455
      0.63433333	      1.45925594	      4.83917196	      4.68814433	     -0.80820417	      0.99077214	      0.27678841	     21.65671958	     -6.13146084	     -9.74375859	     -3.13505531	     -6.59131384	    -11.89204946	     -1.58746503	    -17.04136388	      4.19166518	     -2.99902272	    -11.79621909	      9.88286050	     -5.39473091	      0.55530841	    -13.80614781	     -3.64281047	     -2.64847799
      0.63850000	      1.65380861	      4.64211288	      4.62933054	     -0.80211215	      0.99109778	      0.27751138	     21.40019663	     -5.84939312	     -9.63699845	     -3.56769024	     -7.31283006	    -12.48900963	     -1.49064532	    -17.15010586	      3.88090653	     -3.14783342	    -12.62906555	      9.57275823	     -5.39982206	      0.75101747	    -13.97156971	     -3.36708019	     -2.61279728
      0.64266667	      1.83405190	      4.44816124	      4.48148986	     -0.79597854	      0.99142685	      0.27837560	     21.17049143	     -5.54588124	     -9.47489471	     -3.98768782	     -8.12030488	    -12.94157344	     -1.29278264	    -17.22885416	      3.59935525	     -3.39612226	    -13.49519132	      9.26760969	     -5.38628870	      1.16584778	    -14.11735881	     -3.11782019	     -2.49129245
      0.64683333	      1.89825575	      4.24406138	      4.40570079	     -0.78975223	      0.99169705	      0.27903210	     21.03761913	     -5.27707513	     -9.40698981	     -4.40561842	     -8.82061618	    -13.35967886	     -1.20178246	    -17.15400216	      3.31530111	     -3.52880619	    -14.41288586	      8.81532348	     -5.56339423	      1.39014458	    -14.10312081	     -2.83198761	     -2.38784346
      0.65100000	      2.05252877	      4.02336824	      4.15195970	     -0.78352851	      0.99205778	      0.28013979	     20.84061021	     -4.91064637	     -9.15960327	     -4.82564016	     -9.55650724	    -13.76985190	     -0.96715922	    -17.15274335	      3.02523907	     -3.93845202	    -15.37852110	      8.41522558	     -5.52680466	      2.01109695	    -14.20964275	     -2.59035454	     -2.15975781
      0.65516667	      2.16811579	      3.76616180	      3.85097135	     -0.77717510	      0.99240470	      0.28134914	     20.68016222	     -4.49222567	     -8.87768663	     -5.25532233	    -10.16962656	    -14.17178026	     -0.53739766	    -17.09746054	      2.70595557	     -4.43943280	    -16.36862398	      7.86578857	     -5.53010039	      3.35205334	    -14.24168063	     -2.31752047	     -1.85696268
      0.65933333	      2.19802343	      3.55285606	      3.78383949	     -0.77095927	      0.99282789	      0.28195333	     20.55920374	     -4.24056100	     -8.88103233	     -5.66656483	    -10.71807340	    -14.41275620	     -0.46105564	    -16.87092163	      2.41817070	     -4.54901986	    -17.47867848	      7.28310754	     -5.85976952	      3.68025486	    -14.20047382	     -2.03390570	     -1.74748218
      0.66350000	      2.28389220	      3.29415582	      3.52299876	     -0.76464805	      0.99328107	      0.28300197	     20.41252802	     -3.85969508	     -8.69992355	     -6.10184531	    -11.24870755	    -14.69115946	     -0.37024472	    -16.70233969	      2.09914628	     -4.97268575	    -18.60420551	      6.65221817	     -6.00739586	      4.14429735	    -14.21112657	     -1.72773447	     -1.51219078
      0.66766667	      2.26220338	      3.04081560	      3.16705129	     -0.75825192	      0.99355043	      0.28431124	     20.40701928	     -3.45429858	     -8.40337211	     -6.59392289	    -11.58082988	    -14.83785261	      0.84465406	    -16.39183682	      1.79225789	     -5.57024897	    -19.78164374	      5.88514608	     -6.20181882	     12.53017662	    -14.07922810	     -1.49448029	     -1.28158352
      0.67183333	      2.39091819	      2.76948546	      2.94095031	     -0.75199401	      0.99420168	      0.28522312	     20.17902844	     -3.09349055	     -8.31409023	     -7.00606480	    -11.94113923	    -14.86164642	      0.82856449	    -16.18962475	      1.44741207	     -5.94357848	    -21.03064987	      5.15121878	     -6.44950186	     12.57205531	    -14.15450363	     -1.16015798	     -0.95775529
